<?xml version="1.0" encoding="utf-8" standalone="no"?>
<!DOCTYPE svg PUBLIC "-//W3C//DTD SVG 1.1//EN"
  "http://www.w3.org/Graphics/SVG/1.1/DTD/svg11.dtd">
<!-- Created with matplotlib (http://matplotlib.org/) -->
<svg height="432pt" version="1.1" viewBox="0 0 576 432" width="576pt" xmlns="http://www.w3.org/2000/svg" xmlns:xlink="http://www.w3.org/1999/xlink">
 <defs>
  <style type="text/css">
*{stroke-linecap:butt;stroke-linejoin:round;}
  </style>
 </defs>
 <g id="figure_1">
  <g id="patch_1">
   <path d="
M0 432
L576 432
L576 0
L0 0
z
" style="fill:#ffffff;"/>
  </g>
  <g id="axes_1">
   <g id="patch_2">
    <path d="
M72 388.8
L518.4 388.8
L518.4 43.2
L72 43.2
z
" style="fill:#ffffff;"/>
   </g>
   <g id="LineCollection_1">
    <defs>
     <path d="
M135.127 -105.094
L137.382 -104.261
L139.636 -103.638
L141.891 -103.203
L144.145 -102.935
L146.4 -102.821
L148.655 -102.85
L150.909 -103.011
L153.164 -103.3
L155.418 -103.713
L157.673 -104.249
L159.927 -104.908
L162.182 -105.694
L163.032 -106.036
L164.436 -106.559
L166.691 -107.514
L168.945 -108.599
L170.666 -109.527
L171.2 -109.796
L173.455 -111.039
L175.709 -112.427
L176.592 -113.018
L177.964 -113.883
L180.218 -115.437
L181.642 -116.509
L182.473 -117.101
L184.727 -118.833
L186.125 -120
L186.982 -120.683
L189.236 -122.61
L190.197 -123.491
L191.491 -124.631
L193.745 -126.782
L193.946 -126.982
L196 -128.966
L197.446 -130.473
L198.255 -131.292
L200.509 -133.727
L200.72 -133.964
L202.764 -136.214
L203.823 -137.455
L205.018 -138.832
L206.752 -140.945
L207.273 -141.574
L209.527 -144.434
L209.529 -144.436
L211.782 -147.363
L212.199 -147.927
L214.036 -150.423
L214.744 -151.418
L216.291 -153.612
L217.178 -154.909
L218.545 -156.936
L219.51 -158.4
L220.8 -160.398
L221.746 -161.891
L223.055 -164.008
L223.892 -165.382
L225.309 -167.777
L225.952 -168.873
L227.564 -171.718
L227.928 -172.364
L229.818 -175.851
L229.82 -175.855
L231.667 -179.345
L232.073 -180.151
L233.437 -182.836
L234.327 -184.686
L235.128 -186.327
L236.582 -189.492
L236.735 -189.818
L238.307 -193.309
L238.836 -194.56
L239.81 -196.8
L241.091 -199.98
L241.22 -200.291
L242.609 -203.782
L243.345 -205.785
L243.914 -207.273
L245.159 -210.764
L245.6 -212.09
L246.354 -214.255
L247.472 -217.745
L247.855 -219.031
L248.547 -221.236
L249.551 -224.727
L250.109 -226.852
L250.491 -228.218
L251.387 -231.709
L252.19 -235.2
L252.364 -236.028
L252.963 -238.691
L253.664 -242.182
L254.281 -245.673
L254.618 -247.847
L254.839 -249.164
L255.347 -252.655
L255.773 -256.145
L256.118 -259.636
L256.385 -263.127
L256.572 -266.618
L256.676 -270.109
L256.695 -273.6
L256.621 -277.091
L256.448 -280.582
L256.167 -284.073
L255.764 -287.564
L255.226 -291.055
L254.618 -294.143
L254.539 -294.545
L253.709 -298.036
L252.679 -301.527
L252.364 -302.445
L251.442 -305.018
L250.109 -308.136
L249.939 -308.509
L248.125 -312
L247.855 -312.462
L245.899 -315.491
L245.6 -315.909
L243.345 -318.719
L243.105 -318.982
L241.091 -321.045
L239.429 -322.473
L238.836 -322.961
L236.582 -324.556
L234.327 -325.84
L234.067 -325.964
L232.073 -326.906
L229.818 -327.739
L227.564 -328.362
L225.309 -328.797
L223.055 -329.065
L220.8 -329.179
L218.545 -329.15
L216.291 -328.989
L214.036 -328.7
L211.782 -328.287
L209.527 -327.751
L207.273 -327.092
L205.018 -326.306
L204.168 -325.964
L202.764 -325.441
L200.509 -324.486
L198.255 -323.401
L196.534 -322.473
L196 -322.204
L193.745 -320.961
L191.491 -319.573
L190.608 -318.982
L189.236 -318.117
L186.982 -316.563
L185.558 -315.491
L184.727 -314.899
L182.473 -313.167
L181.075 -312
L180.218 -311.317
L177.964 -309.39
L177.003 -308.509
L175.709 -307.369
L173.455 -305.218
L173.254 -305.018
L171.2 -303.034
L169.754 -301.527
L168.945 -300.708
L166.691 -298.273
L166.48 -298.036
L164.436 -295.786
L163.377 -294.545
L162.182 -293.168
L160.448 -291.055
L159.927 -290.426
L157.673 -287.566
L157.671 -287.564
L155.418 -284.637
L155.001 -284.073
L153.164 -281.577
L152.456 -280.582
L150.909 -278.388
L150.022 -277.091
L148.655 -275.064
L147.69 -273.6
L146.4 -271.602
L145.454 -270.109
L144.145 -267.992
L143.308 -266.618
L141.891 -264.223
L141.248 -263.127
L139.636 -260.282
L139.272 -259.636
L137.382 -256.149
L137.38 -256.145
L135.533 -252.655
L135.127 -251.849
L133.763 -249.164
L132.873 -247.314
L132.072 -245.673
L130.618 -242.508
L130.465 -242.182
L128.893 -238.691
L128.364 -237.44
L127.39 -235.2
L126.109 -232.02
L125.98 -231.709
L124.591 -228.218
L123.855 -226.215
L123.286 -224.727
L122.041 -221.236
L121.6 -219.91
L120.846 -217.745
L119.728 -214.255
L119.345 -212.969
L118.653 -210.764
L117.649 -207.273
L117.091 -205.148
L116.709 -203.782
L115.813 -200.291
L115.01 -196.8
L114.836 -195.972
L114.237 -193.309
L113.536 -189.818
L112.919 -186.327
L112.582 -184.153
L112.361 -182.836
L111.853 -179.345
L111.427 -175.855
L111.082 -172.364
L110.815 -168.873
L110.628 -165.382
L110.524 -161.891
L110.505 -158.4
L110.579 -154.909
L110.752 -151.418
L111.033 -147.927
L111.436 -144.436
L111.974 -140.945
L112.582 -137.857
L112.661 -137.455
L113.491 -133.964
L114.521 -130.473
L114.836 -129.555
L115.758 -126.982
L117.091 -123.864
L117.261 -123.491
L119.075 -120
L119.345 -119.538
L121.301 -116.509
L121.6 -116.091
L123.855 -113.281
L124.095 -113.018
L126.109 -110.955
L127.771 -109.527
L128.364 -109.039
L130.618 -107.444
L132.873 -106.16
L133.133 -106.036
L135.127 -105.094" id="C0_0_093323fa32"/>
    </defs>
    <g clip-path="url(#p7ff5b81e1d)">
     <use style="fill:none;stroke:#000080;" x="0.0" xlink:href="#C0_0_093323fa32" y="432.0"/>
    </g>
   </g>
   <g id="LineCollection_2">
    <defs>
     <path d="
M146.4 -126.627
L148.655 -125.997
L150.909 -125.596
L153.164 -125.402
L155.418 -125.396
L157.673 -125.563
L159.927 -125.895
L162.182 -126.384
L164.28 -126.982
L164.436 -127.024
L166.691 -127.773
L168.945 -128.663
L171.2 -129.697
L172.682 -130.473
L173.455 -130.857
L175.709 -132.114
L177.964 -133.523
L178.607 -133.964
L180.218 -135.023
L182.473 -136.656
L183.488 -137.455
L184.727 -138.399
L186.982 -140.265
L187.747 -140.945
L189.236 -142.236
L191.491 -144.357
L191.571 -144.436
L193.745 -146.551
L195.063 -147.927
L196 -148.895
L198.255 -151.379
L198.289 -151.418
L200.509 -153.952
L201.302 -154.909
L202.764 -156.673
L204.125 -158.4
L205.018 -159.54
L206.78 -161.891
L207.273 -162.555
L209.288 -165.382
L209.527 -165.722
L211.665 -168.873
L211.782 -169.048
L213.923 -172.364
L214.036 -172.544
L216.071 -175.855
L216.291 -176.224
L218.116 -179.345
L218.545 -180.108
L220.064 -182.836
L220.8 -184.22
L221.915 -186.327
L223.055 -188.59
L223.673 -189.818
L225.309 -193.256
L225.334 -193.309
L226.939 -196.8
L227.564 -198.251
L228.453 -200.291
L229.818 -203.658
L229.869 -203.782
L231.239 -207.273
L232.073 -209.579
L232.512 -210.764
L233.717 -214.255
L234.327 -216.174
L234.843 -217.745
L235.898 -221.236
L236.582 -223.73
L236.867 -224.727
L237.776 -228.218
L238.588 -231.709
L238.836 -232.905
L239.337 -235.2
L240.005 -238.691
L240.58 -242.182
L241.064 -245.673
L241.091 -245.915
L241.477 -249.164
L241.793 -252.655
L242.007 -256.145
L242.115 -259.636
L242.111 -263.127
L241.986 -266.618
L241.727 -270.109
L241.32 -273.6
L241.091 -275.036
L240.754 -277.091
L240.001 -280.582
L239.026 -284.073
L238.836 -284.639
L237.787 -287.564
L236.582 -290.308
L236.221 -291.055
L234.327 -294.383
L234.222 -294.545
L232.073 -297.477
L231.591 -298.036
L229.818 -299.903
L227.929 -301.527
L227.564 -301.82
L225.309 -303.331
L223.055 -304.496
L221.727 -305.018
L220.8 -305.373
L218.545 -306.003
L216.291 -306.404
L214.036 -306.598
L211.782 -306.604
L209.527 -306.437
L207.273 -306.105
L205.018 -305.616
L202.92 -305.018
L202.764 -304.976
L200.509 -304.227
L198.255 -303.337
L196 -302.303
L194.518 -301.527
L193.745 -301.143
L191.491 -299.886
L189.236 -298.477
L188.593 -298.036
L186.982 -296.977
L184.727 -295.344
L183.712 -294.545
L182.473 -293.601
L180.218 -291.735
L179.453 -291.055
L177.964 -289.764
L175.709 -287.643
L175.629 -287.564
L173.455 -285.449
L172.137 -284.073
L171.2 -283.105
L168.945 -280.621
L168.911 -280.582
L166.691 -278.048
L165.898 -277.091
L164.436 -275.327
L163.075 -273.6
L162.182 -272.46
L160.42 -270.109
L159.927 -269.445
L157.912 -266.618
L157.673 -266.278
L155.535 -263.127
L155.418 -262.952
L153.277 -259.636
L153.164 -259.456
L151.129 -256.145
L150.909 -255.776
L149.084 -252.655
L148.655 -251.892
L147.136 -249.164
L146.4 -247.78
L145.285 -245.673
L144.145 -243.41
L143.527 -242.182
L141.891 -238.744
L141.866 -238.691
L140.261 -235.2
L139.636 -233.749
L138.747 -231.709
L137.382 -228.342
L137.331 -228.218
L135.961 -224.727
L135.127 -222.421
L134.688 -221.236
L133.483 -217.745
L132.873 -215.826
L132.357 -214.255
L131.302 -210.764
L130.618 -208.27
L130.333 -207.273
L129.424 -203.782
L128.612 -200.291
L128.364 -199.095
L127.863 -196.8
L127.195 -193.309
L126.62 -189.818
L126.136 -186.327
L126.109 -186.085
L125.723 -182.836
L125.407 -179.345
L125.193 -175.855
L125.085 -172.364
L125.089 -168.873
L125.214 -165.382
L125.473 -161.891
L125.88 -158.4
L126.109 -156.964
L126.446 -154.909
L127.199 -151.418
L128.174 -147.927
L128.364 -147.361
L129.413 -144.436
L130.618 -141.692
L130.979 -140.945
L132.873 -137.617
L132.978 -137.455
L135.127 -134.523
L135.609 -133.964
L137.382 -132.097
L139.271 -130.473
L139.636 -130.18
L141.891 -128.669
L144.145 -127.504
L145.473 -126.982
L146.4 -126.627" id="C1_0_3c5b928b41"/>
    </defs>
    <g clip-path="url(#p7ff5b81e1d)">
     <use style="fill:none;stroke:#004cff;" x="0.0" xlink:href="#C1_0_3c5b928b41" y="432.0"/>
    </g>
   </g>
   <g id="LineCollection_3">
    <defs>
     <path d="
M150.909 -143.604
L153.164 -142.704
L155.418 -142.113
L157.673 -141.792
L159.927 -141.71
L162.182 -141.843
L164.436 -142.174
L166.691 -142.69
L168.945 -143.383
L171.2 -144.248
L171.611 -144.436
L173.455 -145.255
L175.709 -146.417
L177.964 -147.743
L178.244 -147.927
L180.218 -149.192
L182.473 -150.8
L183.263 -151.418
L184.727 -152.542
L186.982 -154.435
L187.505 -154.909
L189.236 -156.459
L191.236 -158.4
L191.491 -158.646
L193.745 -160.963
L194.592 -161.891
L196 -163.437
L197.664 -165.382
L198.255 -166.077
L200.501 -168.873
L200.509 -168.883
L202.764 -171.85
L203.137 -172.364
L205.018 -175.006
L205.599 -175.855
L207.273 -178.363
L207.908 -179.345
L209.527 -181.936
L210.075 -182.836
L211.782 -185.75
L212.113 -186.327
L214.029 -189.818
L214.036 -189.831
L215.842 -193.309
L216.291 -194.223
L217.547 -196.8
L218.545 -198.98
L219.145 -200.291
L220.641 -203.782
L220.8 -204.177
L222.054 -207.273
L223.055 -209.953
L223.361 -210.764
L224.583 -214.255
L225.309 -216.521
L225.708 -217.745
L226.747 -221.236
L227.564 -224.294
L227.682 -224.727
L228.539 -228.218
L229.289 -231.709
L229.818 -234.564
L229.94 -235.2
L230.499 -238.691
L230.946 -242.182
L231.279 -245.673
L231.493 -249.164
L231.579 -252.655
L231.526 -256.145
L231.319 -259.636
L230.937 -263.127
L230.356 -266.618
L229.818 -268.976
L229.54 -270.109
L228.432 -273.6
L227.564 -275.756
L226.958 -277.091
L225.309 -280.071
L224.979 -280.582
L223.055 -283.135
L222.192 -284.073
L220.8 -285.417
L218.545 -287.132
L217.814 -287.564
L216.291 -288.396
L214.036 -289.296
L211.782 -289.887
L209.527 -290.208
L207.273 -290.29
L205.018 -290.157
L202.764 -289.826
L200.509 -289.31
L198.255 -288.617
L196 -287.752
L195.589 -287.564
L193.745 -286.745
L191.491 -285.583
L189.236 -284.257
L188.956 -284.073
L186.982 -282.808
L184.727 -281.2
L183.937 -280.582
L182.473 -279.458
L180.218 -277.565
L179.695 -277.091
L177.964 -275.541
L175.964 -273.6
L175.709 -273.354
L173.455 -271.037
L172.608 -270.109
L171.2 -268.563
L169.536 -266.618
L168.945 -265.923
L166.699 -263.127
L166.691 -263.117
L164.436 -260.15
L164.063 -259.636
L162.182 -256.994
L161.601 -256.145
L159.927 -253.637
L159.292 -252.655
L157.673 -250.064
L157.125 -249.164
L155.418 -246.25
L155.087 -245.673
L153.171 -242.182
L153.164 -242.169
L151.358 -238.691
L150.909 -237.777
L149.653 -235.2
L148.655 -233.02
L148.055 -231.709
L146.559 -228.218
L146.4 -227.823
L145.146 -224.727
L144.145 -222.047
L143.839 -221.236
L142.617 -217.745
L141.891 -215.479
L141.492 -214.255
L140.453 -210.764
L139.636 -207.706
L139.518 -207.273
L138.661 -203.782
L137.911 -200.291
L137.382 -197.436
L137.26 -196.8
L136.701 -193.309
L136.254 -189.818
L135.921 -186.327
L135.707 -182.836
L135.621 -179.345
L135.674 -175.855
L135.881 -172.364
L136.263 -168.873
L136.844 -165.382
L137.382 -163.024
L137.66 -161.891
L138.768 -158.4
L139.636 -156.244
L140.242 -154.909
L141.891 -151.929
L142.221 -151.418
L144.145 -148.865
L145.008 -147.927
L146.4 -146.583
L148.655 -144.868
L149.386 -144.436
L150.909 -143.604" id="C2_0_fbfd5de693"/>
    </defs>
    <g clip-path="url(#p7ff5b81e1d)">
     <use style="fill:none;stroke:#29ffce;" x="0.0" xlink:href="#C2_0_fbfd5de693" y="432.0"/>
    </g>
   </g>
   <g id="LineCollection_4">
    <defs>
     <path d="
M157.673 -157.229
L159.927 -156.457
L162.182 -156.039
L164.436 -155.925
L166.691 -156.081
L168.945 -156.478
L171.2 -157.097
L173.455 -157.923
L174.498 -158.4
L175.709 -158.946
L177.964 -160.154
L180.218 -161.546
L180.711 -161.891
L182.473 -163.115
L184.727 -164.861
L185.339 -165.382
L186.982 -166.782
L189.225 -168.873
L189.236 -168.883
L191.491 -171.163
L192.595 -172.364
L193.745 -173.632
L195.632 -175.855
L196 -176.297
L198.255 -179.167
L198.388 -179.345
L200.509 -182.261
L200.909 -182.836
L202.764 -185.596
L203.236 -186.327
L205.018 -189.199
L205.39 -189.818
L207.273 -193.102
L207.388 -193.309
L209.242 -196.8
L209.527 -197.37
L210.962 -200.291
L211.782 -202.072
L212.557 -203.782
L214.03 -207.273
L214.036 -207.29
L215.387 -210.764
L216.291 -213.308
L216.627 -214.255
L217.755 -217.745
L218.545 -220.474
L218.768 -221.236
L219.667 -224.727
L220.447 -228.218
L220.8 -230.094
L221.108 -231.709
L221.642 -235.2
L222.041 -238.691
L222.298 -242.182
L222.398 -245.673
L222.325 -249.164
L222.055 -252.655
L221.556 -256.145
L220.8 -259.595
L220.79 -259.636
L219.644 -263.127
L218.545 -265.627
L218.031 -266.618
L216.291 -269.312
L215.651 -270.109
L214.036 -271.81
L211.782 -273.584
L211.755 -273.6
L209.527 -274.771
L207.273 -275.543
L205.018 -275.961
L202.764 -276.075
L200.509 -275.919
L198.255 -275.522
L196 -274.903
L193.745 -274.077
L192.702 -273.6
L191.491 -273.054
L189.236 -271.846
L186.982 -270.454
L186.489 -270.109
L184.727 -268.885
L182.473 -267.139
L181.861 -266.618
L180.218 -265.218
L177.975 -263.127
L177.964 -263.117
L175.709 -260.837
L174.605 -259.636
L173.455 -258.368
L171.568 -256.145
L171.2 -255.703
L168.945 -252.833
L168.812 -252.655
L166.691 -249.739
L166.291 -249.164
L164.436 -246.404
L163.964 -245.673
L162.182 -242.801
L161.81 -242.182
L159.927 -238.898
L159.812 -238.691
L157.958 -235.2
L157.673 -234.63
L156.238 -231.709
L155.418 -229.928
L154.643 -228.218
L153.17 -224.727
L153.164 -224.71
L151.813 -221.236
L150.909 -218.692
L150.573 -217.745
L149.445 -214.255
L148.655 -211.526
L148.432 -210.764
L147.533 -207.273
L146.753 -203.782
L146.4 -201.906
L146.092 -200.291
L145.558 -196.8
L145.159 -193.309
L144.902 -189.818
L144.802 -186.327
L144.875 -182.836
L145.145 -179.345
L145.644 -175.855
L146.4 -172.405
L146.41 -172.364
L147.556 -168.873
L148.655 -166.373
L149.169 -165.382
L150.909 -162.688
L151.549 -161.891
L153.164 -160.19
L155.418 -158.416
L155.445 -158.4
L157.673 -157.229" id="C3_0_68f4329733"/>
    </defs>
    <g clip-path="url(#p7ff5b81e1d)">
     <use style="fill:none;stroke:#ceff29;" x="0.0" xlink:href="#C3_0_68f4329733" y="432.0"/>
    </g>
   </g>
   <g id="LineCollection_5">
    <defs>
     <path d="
M162.182 -171.658
L164.436 -170.593
L166.691 -170.028
L168.945 -169.879
L171.2 -170.082
L173.455 -170.59
L175.709 -171.369
L177.889 -172.364
L177.964 -172.398
L180.218 -173.693
L182.473 -175.203
L183.32 -175.855
L184.727 -176.953
L186.982 -178.921
L187.421 -179.345
L189.236 -181.139
L190.814 -182.836
L191.491 -183.586
L193.745 -186.282
L193.781 -186.327
L196 -189.273
L196.387 -189.818
L198.255 -192.565
L198.735 -193.309
L200.509 -196.2
L200.861 -196.8
L202.764 -200.236
L202.793 -200.291
L204.534 -203.782
L205.018 -204.83
L206.114 -207.273
L207.273 -210.084
L207.547 -210.764
L208.818 -214.255
L209.527 -216.433
L209.948 -217.745
L210.923 -221.236
L211.76 -224.727
L211.782 -224.842
L212.424 -228.218
L212.927 -231.709
L213.256 -235.2
L213.387 -238.691
L213.29 -242.182
L212.926 -245.673
L212.238 -249.164
L211.782 -250.7
L211.086 -252.655
L209.527 -255.746
L209.269 -256.145
L207.273 -258.559
L206.01 -259.636
L205.018 -260.342
L202.764 -261.407
L200.509 -261.972
L198.255 -262.121
L196 -261.918
L193.745 -261.41
L191.491 -260.631
L189.311 -259.636
L189.236 -259.602
L186.982 -258.307
L184.727 -256.797
L183.88 -256.145
L182.473 -255.047
L180.218 -253.079
L179.779 -252.655
L177.964 -250.861
L176.386 -249.164
L175.709 -248.414
L173.455 -245.718
L173.419 -245.673
L171.2 -242.727
L170.813 -242.182
L168.945 -239.435
L168.465 -238.691
L166.691 -235.8
L166.339 -235.2
L164.436 -231.764
L164.407 -231.709
L162.666 -228.218
L162.182 -227.17
L161.086 -224.727
L159.927 -221.916
L159.653 -221.236
L158.382 -217.745
L157.673 -215.567
L157.252 -214.255
L156.277 -210.764
L155.44 -207.273
L155.418 -207.158
L154.776 -203.782
L154.273 -200.291
L153.944 -196.8
L153.813 -193.309
L153.91 -189.818
L154.274 -186.327
L154.962 -182.836
L155.418 -181.3
L156.114 -179.345
L157.673 -176.254
L157.931 -175.855
L159.927 -173.441
L161.19 -172.364
L162.182 -171.658" id="C4_0_ba30a39bb6"/>
    </defs>
    <g clip-path="url(#p7ff5b81e1d)">
     <use style="fill:none;stroke:#ff6800;" x="0.0" xlink:href="#C4_0_ba30a39bb6" y="432.0"/>
    </g>
   </g>
   <g id="LineCollection_6">
    <defs>
     <path d="
M171.2 -186.093
L173.455 -185.717
L175.709 -185.88
L177.359 -186.327
L177.964 -186.498
L180.218 -187.558
L182.473 -188.944
L183.629 -189.818
L184.727 -190.69
L186.982 -192.776
L187.487 -193.309
L189.236 -195.261
L190.485 -196.8
L191.491 -198.124
L193.001 -200.291
L193.745 -201.444
L195.145 -203.782
L196 -205.34
L196.994 -207.273
L198.255 -209.982
L198.599 -210.764
L199.946 -214.255
L200.509 -215.955
L201.074 -217.745
L201.969 -221.236
L202.653 -224.727
L202.764 -225.663
L203.052 -228.218
L203.158 -231.709
L202.915 -235.2
L202.764 -236.029
L202.135 -238.691
L200.597 -242.182
L200.509 -242.318
L198.255 -244.699
L196.535 -245.673
L196 -245.907
L193.745 -246.283
L191.491 -246.12
L189.841 -245.673
L189.236 -245.502
L186.982 -244.442
L184.727 -243.056
L183.571 -242.182
L182.473 -241.31
L180.218 -239.224
L179.713 -238.691
L177.964 -236.739
L176.715 -235.2
L175.709 -233.876
L174.199 -231.709
L173.455 -230.556
L172.055 -228.218
L171.2 -226.66
L170.206 -224.727
L168.945 -222.018
L168.601 -221.236
L167.254 -217.745
L166.691 -216.045
L166.126 -214.255
L165.231 -210.764
L164.547 -207.273
L164.436 -206.337
L164.148 -203.782
L164.042 -200.291
L164.285 -196.8
L164.436 -195.971
L165.065 -193.309
L166.603 -189.818
L166.691 -189.682
L168.945 -187.301
L170.665 -186.327
L171.2 -186.093" id="C5_0_b74641b5ef"/>
    </defs>
    <g clip-path="url(#p7ff5b81e1d)">
     <use style="fill:none;stroke:#800000;" x="0.0" xlink:href="#C5_0_b74641b5ef" y="432.0"/>
    </g>
   </g>
   <g id="line2d_1">
    <path clip-path="url(#p7ff5b81e1d)" d="
M183.6 281.587
L220.8 269.878
L258 217.196
L295.2 209.558
L332.4 102.035
L369.6 186.382
L406.8 293.316
L444 224.778
L481.2 159.791
L518.4 296.797" style="fill:none;stroke:#0000ff;stroke-linecap:square;"/>
   </g>
   <g id="line2d_2">
    <path clip-path="url(#p7ff5b81e1d)" d="
M183.6 254.633
L220.8 160.919
L258 65.4693
L295.2 182.146
L332.4 259.443
L369.6 223.262
L406.8 287.509
L444 221.352
L481.2 107.399
L518.4 248.692" style="fill:none;stroke:#008000;stroke-linecap:square;"/>
   </g>
   <g id="matplotlib.axis_1">
    <g id="xtick_1">
     <g id="line2d_3">
      <defs>
       <path d="
M0 0
L0 -4" id="m93b0483c22" style="stroke:#000000;stroke-width:0.5;"/>
      </defs>
      <g>
       <use style="stroke:#000000;stroke-width:0.5;" x="109.2" xlink:href="#m93b0483c22" y="388.8"/>
      </g>
     </g>
     <g id="line2d_4">
      <defs>
       <path d="
M0 0
L0 4" id="m741efc42ff" style="stroke:#000000;stroke-width:0.5;"/>
      </defs>
      <g>
       <use style="stroke:#000000;stroke-width:0.5;" x="109.2" xlink:href="#m741efc42ff" y="43.2"/>
      </g>
     </g>
     <g id="text_1">
      <!-- −2 -->
      <defs>
       <path d="
M10.5938 35.2969
L73.1875 35.2969
L73.1875 27.3906
L10.5938 27.3906
z
" id="BitstreamVeraSerif-Roman-2212"/>
       <path d="
M12.7969 55.5156
L7.32812 55.5156
L7.32812 68.5
Q12.5469 71.2969 17.8438 72.75
Q23.1406 74.2188 28.2188 74.2188
Q39.5938 74.2188 46.1875 68.7031
Q52.7812 63.1875 52.7812 53.7188
Q52.7812 43.0156 37.8438 28.125
Q36.6719 27 36.0781 26.4219
L17.6719 8.01562
L48.0938 8.01562
L48.0938 17
L53.8125 17
L53.8125 0
L6.78125 0
L6.78125 5.32812
L28.9062 27.3906
Q36.2344 34.7188 39.3594 40.8438
Q42.4844 46.9688 42.4844 53.7188
Q42.4844 61.0781 38.6406 65.2344
Q34.8125 69.3906 28.0781 69.3906
Q21.0938 69.3906 17.2812 65.9219
Q13.4844 62.4531 12.7969 55.5156" id="BitstreamVeraSerif-Roman-32"/>
      </defs>
      <g transform="translate(101.5790625 401.918125)scale(0.12 -0.12)">
       <use xlink:href="#BitstreamVeraSerif-Roman-2212"/>
       <use x="83.7890625" xlink:href="#BitstreamVeraSerif-Roman-32"/>
      </g>
     </g>
    </g>
    <g id="xtick_2">
     <g id="line2d_5">
      <g>
       <use style="stroke:#000000;stroke-width:0.5;" x="183.6" xlink:href="#m93b0483c22" y="388.8"/>
      </g>
     </g>
     <g id="line2d_6">
      <g>
       <use style="stroke:#000000;stroke-width:0.5;" x="183.6" xlink:href="#m741efc42ff" y="43.2"/>
      </g>
     </g>
     <g id="text_2">
      <!-- 0 -->
      <defs>
       <path d="
M31.7812 3.42188
Q39.2656 3.42188 42.9688 11.625
Q46.6875 19.8281 46.6875 36.375
Q46.6875 52.9844 42.9688 61.1875
Q39.2656 69.3906 31.7812 69.3906
Q24.3125 69.3906 20.5938 61.1875
Q16.8906 52.9844 16.8906 36.375
Q16.8906 19.8281 20.5938 11.625
Q24.3125 3.42188 31.7812 3.42188
M31.7812 -1.42188
Q19.9219 -1.42188 13.25 8.53125
Q6.59375 18.5 6.59375 36.375
Q6.59375 54.2969 13.25 64.25
Q19.9219 74.2188 31.7812 74.2188
Q43.7031 74.2188 50.3438 64.25
Q56.9844 54.2969 56.9844 36.375
Q56.9844 18.5 50.3438 8.53125
Q43.7031 -1.42188 31.7812 -1.42188" id="BitstreamVeraSerif-Roman-30"/>
      </defs>
      <g transform="translate(180.5765625 401.918125)scale(0.12 -0.12)">
       <use xlink:href="#BitstreamVeraSerif-Roman-30"/>
      </g>
     </g>
    </g>
    <g id="xtick_3">
     <g id="line2d_7">
      <g>
       <use style="stroke:#000000;stroke-width:0.5;" x="258.0" xlink:href="#m93b0483c22" y="388.8"/>
      </g>
     </g>
     <g id="line2d_8">
      <g>
       <use style="stroke:#000000;stroke-width:0.5;" x="258.0" xlink:href="#m741efc42ff" y="43.2"/>
      </g>
     </g>
     <g id="text_3">
      <!-- 2 -->
      <g transform="translate(255.178125 401.918125)scale(0.12 -0.12)">
       <use xlink:href="#BitstreamVeraSerif-Roman-32"/>
      </g>
     </g>
    </g>
    <g id="xtick_4">
     <g id="line2d_9">
      <g>
       <use style="stroke:#000000;stroke-width:0.5;" x="332.4" xlink:href="#m93b0483c22" y="388.8"/>
      </g>
     </g>
     <g id="line2d_10">
      <g>
       <use style="stroke:#000000;stroke-width:0.5;" x="332.4" xlink:href="#m741efc42ff" y="43.2"/>
      </g>
     </g>
     <g id="text_4">
      <!-- 4 -->
      <defs>
       <path d="
M34.9062 24.7031
L34.9062 63.4844
L10.0156 24.7031
z

M56.3906 0
L23.1875 0
L23.1875 5.17188
L34.9062 5.17188
L34.9062 19.4844
L3.07812 19.4844
L3.07812 24.8125
L35.0156 74.2188
L44.6719 74.2188
L44.6719 24.7031
L58.5938 24.7031
L58.5938 19.4844
L44.6719 19.4844
L44.6719 5.17188
L56.3906 5.17188
z
" id="BitstreamVeraSerif-Roman-34"/>
      </defs>
      <g transform="translate(329.0690625 401.918125)scale(0.12 -0.12)">
       <use xlink:href="#BitstreamVeraSerif-Roman-34"/>
      </g>
     </g>
    </g>
    <g id="xtick_5">
     <g id="line2d_11">
      <g>
       <use style="stroke:#000000;stroke-width:0.5;" x="406.8" xlink:href="#m93b0483c22" y="388.8"/>
      </g>
     </g>
     <g id="line2d_12">
      <g>
       <use style="stroke:#000000;stroke-width:0.5;" x="406.8" xlink:href="#m741efc42ff" y="43.2"/>
      </g>
     </g>
     <g id="text_5">
      <!-- 6 -->
      <defs>
       <path d="
M32.7188 3.42188
Q39.5938 3.42188 43.2969 8.46875
Q47.0156 13.5312 47.0156 23
Q47.0156 32.4688 43.2969 37.5156
Q39.5938 42.5781 32.7188 42.5781
Q25.7344 42.5781 22.0625 37.6875
Q18.4062 32.8125 18.4062 23.5781
Q18.4062 13.875 22.1094 8.64062
Q25.8281 3.42188 32.7188 3.42188
M16.7969 40.1406
Q20.125 43.7969 24.3125 45.5938
Q28.5156 47.4062 33.7969 47.4062
Q44.6719 47.4062 51 40.8594
Q57.3281 34.3281 57.3281 23
Q57.3281 11.9219 50.5156 5.25
Q43.7031 -1.42188 32.3281 -1.42188
Q19.9688 -1.42188 13.3281 7.78125
Q6.6875 17 6.6875 34.0781
Q6.6875 53.2188 14.5469 63.7188
Q22.4062 74.2188 36.7188 74.2188
Q40.5781 74.2188 44.8281 73.4844
Q49.0781 72.75 53.5156 71.2969
L53.5156 59.2812
L48 59.2812
Q47.4062 64.2031 44.2344 66.7969
Q41.0625 69.3906 35.6875 69.3906
Q26.2188 69.3906 21.5781 62.2031
Q16.9375 55.0312 16.7969 40.1406" id="BitstreamVeraSerif-Roman-36"/>
      </defs>
      <g transform="translate(403.7615625 401.918125)scale(0.12 -0.12)">
       <use xlink:href="#BitstreamVeraSerif-Roman-36"/>
      </g>
     </g>
    </g>
    <g id="xtick_6">
     <g id="line2d_13">
      <g>
       <use style="stroke:#000000;stroke-width:0.5;" x="481.2" xlink:href="#m93b0483c22" y="388.8"/>
      </g>
     </g>
     <g id="line2d_14">
      <g>
       <use style="stroke:#000000;stroke-width:0.5;" x="481.2" xlink:href="#m741efc42ff" y="43.2"/>
      </g>
     </g>
     <g id="text_6">
      <!-- 8 -->
      <defs>
       <path d="
M46.5781 19.9219
Q46.5781 27.7344 42.6875 32.0469
Q38.8125 36.375 31.7812 36.375
Q24.75 36.375 20.875 32.0469
Q17 27.7344 17 19.9219
Q17 12.0625 20.875 7.73438
Q24.75 3.42188 31.7812 3.42188
Q38.8125 3.42188 42.6875 7.73438
Q46.5781 12.0625 46.5781 19.9219
M44.5781 55.3281
Q44.5781 61.9688 41.2031 65.6719
Q37.8438 69.3906 31.7812 69.3906
Q25.7812 69.3906 22.3906 65.6719
Q19 61.9688 19 55.3281
Q19 48.6406 22.3906 44.9219
Q25.7812 41.2188 31.7812 41.2188
Q37.8438 41.2188 41.2031 44.9219
Q44.5781 48.6406 44.5781 55.3281
M39.3125 38.8125
Q47.6094 37.7031 52.25 32.6875
Q56.8906 27.6875 56.8906 19.9219
Q56.8906 9.67188 50.3906 4.125
Q43.8906 -1.42188 31.7812 -1.42188
Q19.7344 -1.42188 13.2031 4.125
Q6.6875 9.67188 6.6875 19.9219
Q6.6875 27.6875 11.3281 32.6875
Q15.9688 37.7031 24.3125 38.8125
Q16.9375 40.1406 13 44.4062
Q9.07812 48.6875 9.07812 55.3281
Q9.07812 64.1094 15.125 69.1562
Q21.1875 74.2188 31.7812 74.2188
Q42.3906 74.2188 48.4375 69.1562
Q54.5 64.1094 54.5 55.3281
Q54.5 48.6875 50.5625 44.4062
Q46.625 40.1406 39.3125 38.8125" id="BitstreamVeraSerif-Roman-38"/>
      </defs>
      <g transform="translate(478.1878125 401.918125)scale(0.12 -0.12)">
       <use xlink:href="#BitstreamVeraSerif-Roman-38"/>
      </g>
     </g>
    </g>
   </g>
   <g id="matplotlib.axis_2">
    <g id="ytick_1">
     <g id="line2d_15">
      <defs>
       <path d="
M0 0
L4 0" id="m728421d6d4" style="stroke:#000000;stroke-width:0.5;"/>
      </defs>
      <g>
       <use style="stroke:#000000;stroke-width:0.5;" x="72.0" xlink:href="#m728421d6d4" y="388.8"/>
      </g>
     </g>
     <g id="line2d_16">
      <defs>
       <path d="
M0 0
L-4 0" id="mcb0005524f" style="stroke:#000000;stroke-width:0.5;"/>
      </defs>
      <g>
       <use style="stroke:#000000;stroke-width:0.5;" x="518.4" xlink:href="#mcb0005524f" y="388.8"/>
      </g>
     </g>
     <g id="text_7">
      <!-- −3 -->
      <defs>
       <path d="
M9.71875 69.8281
Q15.4375 71.9688 20.6719 73.0938
Q25.9219 74.2188 30.5156 74.2188
Q41.2188 74.2188 47.2188 69.5938
Q53.2188 64.9844 53.2188 56.7812
Q53.2188 50.2031 49.0625 45.7812
Q44.9219 41.3594 37.3125 39.7969
Q46.2969 38.5312 51.25 33.2812
Q56.2031 28.0312 56.2031 19.6719
Q56.2031 9.46875 49.3438 4.01562
Q42.4844 -1.42188 29.5938 -1.42188
Q23.875 -1.42188 18.4219 -0.1875
Q12.9844 1.03125 7.625 3.51562
L7.625 17.6719
L13.0938 17.6719
Q13.5781 10.6406 17.8281 7.03125
Q22.0781 3.42188 29.7812 3.42188
Q37.25 3.42188 41.5781 7.73438
Q45.9062 12.0625 45.9062 19.5781
Q45.9062 28.1719 41.4531 32.5938
Q37.0156 37.0156 28.4219 37.0156
L23.7812 37.0156
L23.7812 42
L26.2188 42
Q34.7656 42 39.0312 45.5312
Q43.3125 49.0781 43.3125 56.2031
Q43.3125 62.5938 39.7969 65.9844
Q36.2812 69.3906 29.6875 69.3906
Q23.0938 69.3906 19.4531 66.2656
Q15.8281 63.1406 15.1875 56.9844
L9.71875 56.9844
z
" id="BitstreamVeraSerif-Roman-33"/>
      </defs>
      <g transform="translate(52.47125 392.11125)scale(0.12 -0.12)">
       <use xlink:href="#BitstreamVeraSerif-Roman-2212"/>
       <use x="83.7890625" xlink:href="#BitstreamVeraSerif-Roman-33"/>
      </g>
     </g>
    </g>
    <g id="ytick_2">
     <g id="line2d_17">
      <g>
       <use style="stroke:#000000;stroke-width:0.5;" x="72.0" xlink:href="#m728421d6d4" y="331.2"/>
      </g>
     </g>
     <g id="line2d_18">
      <g>
       <use style="stroke:#000000;stroke-width:0.5;" x="518.4" xlink:href="#mcb0005524f" y="331.2"/>
      </g>
     </g>
     <g id="text_8">
      <!-- −2 -->
      <g transform="translate(52.758125 334.51125)scale(0.12 -0.12)">
       <use xlink:href="#BitstreamVeraSerif-Roman-2212"/>
       <use x="83.7890625" xlink:href="#BitstreamVeraSerif-Roman-32"/>
      </g>
     </g>
    </g>
    <g id="ytick_3">
     <g id="line2d_19">
      <g>
       <use style="stroke:#000000;stroke-width:0.5;" x="72.0" xlink:href="#m728421d6d4" y="273.6"/>
      </g>
     </g>
     <g id="line2d_20">
      <g>
       <use style="stroke:#000000;stroke-width:0.5;" x="518.4" xlink:href="#mcb0005524f" y="273.6"/>
      </g>
     </g>
     <g id="text_9">
      <!-- −1 -->
      <defs>
       <path d="
M14.2031 0
L14.2031 5.17188
L26.9062 5.17188
L26.9062 65.8281
L12.2031 56.2969
L12.2031 62.7031
L29.9844 74.2188
L36.7188 74.2188
L36.7188 5.17188
L49.4219 5.17188
L49.4219 0
z
" id="BitstreamVeraSerif-Roman-31"/>
      </defs>
      <g transform="translate(53.285 276.91125)scale(0.12 -0.12)">
       <use xlink:href="#BitstreamVeraSerif-Roman-2212"/>
       <use x="83.7890625" xlink:href="#BitstreamVeraSerif-Roman-31"/>
      </g>
     </g>
    </g>
    <g id="ytick_4">
     <g id="line2d_21">
      <g>
       <use style="stroke:#000000;stroke-width:0.5;" x="72.0" xlink:href="#m728421d6d4" y="216.0"/>
      </g>
     </g>
     <g id="line2d_22">
      <g>
       <use style="stroke:#000000;stroke-width:0.5;" x="518.4" xlink:href="#mcb0005524f" y="216.0"/>
      </g>
     </g>
     <g id="text_10">
      <!-- 0 -->
      <g transform="translate(61.953125 219.31125)scale(0.12 -0.12)">
       <use xlink:href="#BitstreamVeraSerif-Roman-30"/>
      </g>
     </g>
    </g>
    <g id="ytick_5">
     <g id="line2d_23">
      <g>
       <use style="stroke:#000000;stroke-width:0.5;" x="72.0" xlink:href="#m728421d6d4" y="158.4"/>
      </g>
     </g>
     <g id="line2d_24">
      <g>
       <use style="stroke:#000000;stroke-width:0.5;" x="518.4" xlink:href="#mcb0005524f" y="158.4"/>
      </g>
     </g>
     <g id="text_11">
      <!-- 1 -->
      <g transform="translate(63.53375 161.71125)scale(0.12 -0.12)">
       <use xlink:href="#BitstreamVeraSerif-Roman-31"/>
      </g>
     </g>
    </g>
    <g id="ytick_6">
     <g id="line2d_25">
      <g>
       <use style="stroke:#000000;stroke-width:0.5;" x="72.0" xlink:href="#m728421d6d4" y="100.8"/>
      </g>
     </g>
     <g id="line2d_26">
      <g>
       <use style="stroke:#000000;stroke-width:0.5;" x="518.4" xlink:href="#mcb0005524f" y="100.8"/>
      </g>
     </g>
     <g id="text_12">
      <!-- 2 -->
      <g transform="translate(62.35625 104.11125)scale(0.12 -0.12)">
       <use xlink:href="#BitstreamVeraSerif-Roman-32"/>
      </g>
     </g>
    </g>
    <g id="ytick_7">
     <g id="line2d_27">
      <g>
       <use style="stroke:#000000;stroke-width:0.5;" x="72.0" xlink:href="#m728421d6d4" y="43.2"/>
      </g>
     </g>
     <g id="line2d_28">
      <g>
       <use style="stroke:#000000;stroke-width:0.5;" x="518.4" xlink:href="#mcb0005524f" y="43.2"/>
      </g>
     </g>
     <g id="text_13">
      <!-- 3 -->
      <g transform="translate(62.170625 46.51125)scale(0.12 -0.12)">
       <use xlink:href="#BitstreamVeraSerif-Roman-33"/>
      </g>
     </g>
    </g>
   </g>
   <g id="patch_3">
    <path d="
M72 43.2
L518.4 43.2" style="fill:none;stroke:#000000;"/>
   </g>
   <g id="patch_4">
    <path d="
M518.4 388.8
L518.4 43.2" style="fill:none;stroke:#000000;"/>
   </g>
   <g id="patch_5">
    <path d="
M72 388.8
L518.4 388.8" style="fill:none;stroke:#000000;"/>
   </g>
   <g id="patch_6">
    <path d="
M72 388.8
L72 43.2" style="fill:none;stroke:#000000;"/>
   </g>
  </g>
 </g>
 <defs>
  <clipPath id="p7ff5b81e1d">
   <rect height="345.6" width="446.4" x="72.0" y="43.2"/>
  </clipPath>
 </defs>
</svg>
