<?xml version="1.0" encoding="utf-8" standalone="no"?>
<!DOCTYPE svg PUBLIC "-//W3C//DTD SVG 1.1//EN"
  "http://www.w3.org/Graphics/SVG/1.1/DTD/svg11.dtd">
<!-- Created with matplotlib (http://matplotlib.org/) -->
<svg height="432pt" version="1.1" viewBox="0 0 576 432" width="576pt" xmlns="http://www.w3.org/2000/svg" xmlns:xlink="http://www.w3.org/1999/xlink">
 <defs>
  <style type="text/css">
*{stroke-linecap:butt;stroke-linejoin:round;}
  </style>
 </defs>
 <g id="figure_1">
  <g id="patch_1">
   <path d="
M0 432
L576 432
L576 0
L0 0
z
" style="fill:#ffffff;"/>
  </g>
  <g id="axes_1">
   <g id="patch_2">
    <path d="
M72 388.8
L518.4 388.8
L518.4 43.2
L72 43.2
z
" style="fill:#ffffff;"/>
   </g>
   <g id="line2d_1">
    <path clip-path="url(#p7ff5b81e1d)" d="
M72 43.2
L81.1102 342.028
L90.2204 382.47
L99.3306 387.943
L108.441 388.684
L117.551 388.784
L126.661 388.798
L135.771 388.8
L144.882 388.8
L153.992 388.8
L163.102 388.8
L172.212 388.8
L181.322 388.8
L190.433 388.8
L199.543 388.8
L208.653 388.8
L217.763 319.68
L226.873 319.68
L235.984 319.68
L245.094 319.68
L254.204 319.68
L263.314 319.68
L272.424 319.68
L281.535 319.68
L290.645 319.68
L299.755 388.8
L308.865 388.8
L317.976 388.8
L327.086 388.8
L336.196 388.8
L345.306 388.8
L354.416 388.8
L363.527 388.8
L372.637 388.8
L381.747 388.8
L390.857 388.8
L399.967 388.8
L409.078 388.8
L418.188 388.8
L427.298 388.8
L436.408 388.8
M481.959 388.8
L491.069 388.8
L500.18 388.8
L509.29 388.8
L518.4 388.8" style="fill:none;stroke:#0000ff;stroke-linecap:square;"/>
   </g>
   <g id="patch_3">
    <path d="
M72 43.2
L518.4 43.2" style="fill:none;stroke:#000000;stroke-linecap:square;stroke-linejoin:miter;"/>
   </g>
   <g id="patch_4">
    <path d="
M518.4 388.8
L518.4 43.2" style="fill:none;stroke:#000000;stroke-linecap:square;stroke-linejoin:miter;"/>
   </g>
   <g id="patch_5">
    <path d="
M72 388.8
L518.4 388.8" style="fill:none;stroke:#000000;stroke-linecap:square;stroke-linejoin:miter;"/>
   </g>
   <g id="patch_6">
    <path d="
M72 388.8
L72 43.2" style="fill:none;stroke:#000000;stroke-linecap:square;stroke-linejoin:miter;"/>
   </g>
   <g id="matplotlib.axis_1">
    <g id="xtick_1">
     <g id="line2d_2">
      <path clip-path="url(#p7ff5b81e1d)" d="
M72 388.8
L72 43.2" style="fill:none;stroke:#000000;stroke-dasharray:1.000000,3.000000;stroke-dashoffset:0.0;stroke-width:0.5;"/>
     </g>
     <g id="line2d_3">
      <defs>
       <path d="
M0 0
L0 -4" id="m93b0483c22" style="stroke:#000000;stroke-width:0.5;"/>
      </defs>
      <g>
       <use style="stroke:#000000;stroke-width:0.5;" x="72.0" xlink:href="#m93b0483c22" y="388.8"/>
      </g>
     </g>
     <g id="line2d_4">
      <defs>
       <path d="
M0 0
L0 4" id="m741efc42ff" style="stroke:#000000;stroke-width:0.5;"/>
      </defs>
      <g>
       <use style="stroke:#000000;stroke-width:0.5;" x="72.0" xlink:href="#m741efc42ff" y="43.2"/>
      </g>
     </g>
     <g id="text_1">
      <!-- $0$ -->
      <defs>
       <path d="
M25.4062 68
C19.9062 68 15.7031 66.3125 12 62.8125
C6.20312 57.2031 2.40625 45.7031 2.40625 34
C2.40625 23.1094 5.70312 11.4062 10.4062 5.8125
C14.0938 1.40625 19.2031 -1 25 -1
C30.0938 -1 34.4062 0.703125 38 4.20312
C43.7969 9.70312 47.5938 21.3125 47.5938 33.4062
C47.5938 53.9062 38.5 68 25.4062 68
M25.0938 65.4062
C33.5 65.4062 38 54.1094 38 33.2031
C38 12.3125 33.5938 1.60938 25 1.60938
C16.4062 1.60938 12 12.3125 12 33.1094
C12 54.3125 16.5 65.4062 25.0938 65.4062" id="Nimbus_Roman_No9_L_Regular-48"/>
      </defs>
      <g transform="translate(69.0112079701 400.905483952)scale(0.12 -0.12)">
       <use transform="scale(0.996264009963)" xlink:href="#Nimbus_Roman_No9_L_Regular-48"/>
      </g>
     </g>
    </g>
    <g id="xtick_2">
     <g id="line2d_5">
      <path clip-path="url(#p7ff5b81e1d)" d="
M163.102 388.8
L163.102 43.2" style="fill:none;stroke:#000000;stroke-dasharray:1.000000,3.000000;stroke-dashoffset:0.0;stroke-width:0.5;"/>
     </g>
     <g id="line2d_6">
      <g>
       <use style="stroke:#000000;stroke-width:0.5;" x="163.102040816" xlink:href="#m93b0483c22" y="388.8"/>
      </g>
     </g>
     <g id="line2d_7">
      <g>
       <use style="stroke:#000000;stroke-width:0.5;" x="163.102040816" xlink:href="#m741efc42ff" y="43.2"/>
      </g>
     </g>
     <g id="text_2">
      <!-- $10$ -->
      <defs>
       <path d="
M29.0938 67.7969
L11.0938 58.7031
L11.0938 57.2969
C12.2969 57.7969 13.4062 58.2031 13.7969 58.4062
C15.5938 59.1094 17.2969 59.5 18.2969 59.5
C20.4062 59.5 21.2969 58 21.2969 54.7656
L21.2969 9.25
C21.2969 5.92188 20.5 3.625 18.9062 2.70312
C17.4062 1.8125 16 1.5 11.7969 1.5
L11.7969 0
L39.4062 0
L39.4062 1.5
C31.5 1.5 29.9062 2.5 29.9062 7.34375
L29.9062 67.6094
z
" id="Nimbus_Roman_No9_L_Regular-49"/>
      </defs>
      <g transform="translate(157.124456757 400.905483952)scale(0.12 -0.12)">
       <use transform="scale(0.996264009963)" xlink:href="#Nimbus_Roman_No9_L_Regular-49"/>
       <use transform="translate(49.8132004981 0.0)scale(0.996264009963)" xlink:href="#Nimbus_Roman_No9_L_Regular-48"/>
      </g>
     </g>
    </g>
    <g id="xtick_3">
     <g id="line2d_8">
      <path clip-path="url(#p7ff5b81e1d)" d="
M254.204 388.8
L254.204 43.2" style="fill:none;stroke:#000000;stroke-dasharray:1.000000,3.000000;stroke-dashoffset:0.0;stroke-width:0.5;"/>
     </g>
     <g id="line2d_9">
      <g>
       <use style="stroke:#000000;stroke-width:0.5;" x="254.204081633" xlink:href="#m93b0483c22" y="388.8"/>
      </g>
     </g>
     <g id="line2d_10">
      <g>
       <use style="stroke:#000000;stroke-width:0.5;" x="254.204081633" xlink:href="#m741efc42ff" y="43.2"/>
      </g>
     </g>
     <g id="text_3">
      <!-- $20$ -->
      <defs>
       <path d="
M47.5 13.6719
L46.2031 14.1719
C42.5 8.5 41.2031 7.59375 36.7031 7.59375
L12.7969 7.59375
L29.5938 25.1406
C38.5 34.4062 42.4062 41.9844 42.4062 49.7656
C42.4062 59.7344 34.2969 67.3906 23.9062 67.3906
C18.4062 67.3906 13.2031 65.2031 9.5 61.2188
C6.29688 57.8125 4.79688 54.625 3.09375 47.5469
L5.20312 47.0469
C9.20312 56.8125 12.7969 60 19.7031 60
C28.0938 60 33.7969 54.3125 33.7969 45.9375
C33.7969 38.1719 29.2031 28.9062 20.7969 20.0312
L3 1.20312
L3 0
L42 0
z
" id="Nimbus_Roman_No9_L_Regular-50"/>
      </defs>
      <g transform="translate(248.226497573 400.905483952)scale(0.12 -0.12)">
       <use transform="scale(0.996264009963)" xlink:href="#Nimbus_Roman_No9_L_Regular-50"/>
       <use transform="translate(49.8132004981 0.0)scale(0.996264009963)" xlink:href="#Nimbus_Roman_No9_L_Regular-48"/>
      </g>
     </g>
    </g>
    <g id="xtick_4">
     <g id="line2d_11">
      <path clip-path="url(#p7ff5b81e1d)" d="
M345.306 388.8
L345.306 43.2" style="fill:none;stroke:#000000;stroke-dasharray:1.000000,3.000000;stroke-dashoffset:0.0;stroke-width:0.5;"/>
     </g>
     <g id="line2d_12">
      <g>
       <use style="stroke:#000000;stroke-width:0.5;" x="345.306122449" xlink:href="#m93b0483c22" y="388.8"/>
      </g>
     </g>
     <g id="line2d_13">
      <g>
       <use style="stroke:#000000;stroke-width:0.5;" x="345.306122449" xlink:href="#m741efc42ff" y="43.2"/>
      </g>
     </g>
     <g id="text_4">
      <!-- $30$ -->
      <defs>
       <path d="
M15.2969 33.4062
C21.2031 33.4062 23.5 33.2031 25.9062 32.3125
C32.0938 30.1094 36 24.4062 36 17.5
C36 9.10938 30.2969 2.60938 22.9062 2.60938
C20.2031 2.60938 18.2031 3.3125 14.5 5.70312
C11.5 7.5 9.79688 8.20312 8.09375 8.20312
C5.79688 8.20312 4.29688 6.8125 4.29688 4.70312
C4.29688 1.20312 8.59375 -1 15.5938 -1
C23.2969 -1 31.2031 1.60938 35.9062 5.70312
C40.5938 9.8125 43.2031 15.6094 43.2031 22.3125
C43.2031 27.4062 41.5938 32.1094 38.7031 35.2031
C36.7031 37.4062 34.7969 38.6094 30.4062 40.5
C37.2969 45.2031 39.7969 48.9062 39.7969 54.3125
C39.7969 62.4062 33.4062 68 24.2031 68
C19.2031 68 14.7969 66.3125 11.2031 63.1094
C8.20312 60.4062 6.70312 57.7969 4.5 51.7969
L6 51.4062
C10.0938 58.7031 14.5938 62 20.9062 62
C27.4062 62 31.9062 57.6094 31.9062 51.3125
C31.9062 47.7031 30.4062 44.1094 27.9062 41.6094
C24.9062 38.6094 22.0938 37.1094 15.2969 34.7031
z
" id="Nimbus_Roman_No9_L_Regular-51"/>
      </defs>
      <g transform="translate(339.328538389 400.905483952)scale(0.12 -0.12)">
       <use transform="scale(0.996264009963)" xlink:href="#Nimbus_Roman_No9_L_Regular-51"/>
       <use transform="translate(49.8132004981 0.0)scale(0.996264009963)" xlink:href="#Nimbus_Roman_No9_L_Regular-48"/>
      </g>
     </g>
    </g>
    <g id="xtick_5">
     <g id="line2d_14">
      <path clip-path="url(#p7ff5b81e1d)" d="
M436.408 388.8
L436.408 43.2" style="fill:none;stroke:#000000;stroke-dasharray:1.000000,3.000000;stroke-dashoffset:0.0;stroke-width:0.5;"/>
     </g>
     <g id="line2d_15">
      <g>
       <use style="stroke:#000000;stroke-width:0.5;" x="436.408163265" xlink:href="#m93b0483c22" y="388.8"/>
      </g>
     </g>
     <g id="line2d_16">
      <g>
       <use style="stroke:#000000;stroke-width:0.5;" x="436.408163265" xlink:href="#m741efc42ff" y="43.2"/>
      </g>
     </g>
     <g id="text_5">
      <!-- $40$ -->
      <defs>
       <path d="
M47.2031 23
L37 23
L37 67.5938
L32.5938 67.5938
L1.20312 23
L1.20312 16.6094
L29.2969 16.6094
L29.2969 0
L37 0
L37 16.6094
L47.2031 16.6094
z

M29.2031 23
L5.20312 23
L29.2031 57.375
z
" id="Nimbus_Roman_No9_L_Regular-52"/>
      </defs>
      <g transform="translate(430.430579206 400.905483952)scale(0.12 -0.12)">
       <use transform="scale(0.996264009963)" xlink:href="#Nimbus_Roman_No9_L_Regular-52"/>
       <use transform="translate(49.8132004981 0.0)scale(0.996264009963)" xlink:href="#Nimbus_Roman_No9_L_Regular-48"/>
      </g>
     </g>
    </g>
   </g>
   <g id="matplotlib.axis_2">
    <g id="ytick_1">
     <g id="line2d_17">
      <path clip-path="url(#p7ff5b81e1d)" d="
M72 388.8
L518.4 388.8" style="fill:none;stroke:#000000;stroke-dasharray:1.000000,3.000000;stroke-dashoffset:0.0;stroke-width:0.5;"/>
     </g>
     <g id="line2d_18">
      <defs>
       <path d="
M0 0
L4 0" id="m728421d6d4" style="stroke:#000000;stroke-width:0.5;"/>
      </defs>
      <g>
       <use style="stroke:#000000;stroke-width:0.5;" x="72.0" xlink:href="#m728421d6d4" y="388.8"/>
      </g>
     </g>
     <g id="line2d_19">
      <defs>
       <path d="
M0 0
L-4 0" id="mcb0005524f" style="stroke:#000000;stroke-width:0.5;"/>
      </defs>
      <g>
       <use style="stroke:#000000;stroke-width:0.5;" x="518.4" xlink:href="#mcb0005524f" y="388.8"/>
      </g>
     </g>
     <g id="text_6">
      <!-- $0$ -->
      <g transform="translate(62.0224159402 391.558644646)scale(0.12 -0.12)">
       <use transform="scale(0.996264009963)" xlink:href="#Nimbus_Roman_No9_L_Regular-48"/>
      </g>
     </g>
    </g>
    <g id="ytick_2">
     <g id="line2d_20">
      <path clip-path="url(#p7ff5b81e1d)" d="
M72 319.68
L518.4 319.68" style="fill:none;stroke:#000000;stroke-dasharray:1.000000,3.000000;stroke-dashoffset:0.0;stroke-width:0.5;"/>
     </g>
     <g id="line2d_21">
      <g>
       <use style="stroke:#000000;stroke-width:0.5;" x="72.0" xlink:href="#m728421d6d4" y="319.68"/>
      </g>
     </g>
     <g id="line2d_22">
      <g>
       <use style="stroke:#000000;stroke-width:0.5;" x="518.4" xlink:href="#mcb0005524f" y="319.68"/>
      </g>
     </g>
     <g id="text_7">
      <!-- $2$ -->
      <g transform="translate(62.0224159402 322.438644646)scale(0.12 -0.12)">
       <use transform="scale(0.996264009963)" xlink:href="#Nimbus_Roman_No9_L_Regular-50"/>
      </g>
     </g>
    </g>
    <g id="ytick_3">
     <g id="line2d_23">
      <path clip-path="url(#p7ff5b81e1d)" d="
M72 250.56
L518.4 250.56" style="fill:none;stroke:#000000;stroke-dasharray:1.000000,3.000000;stroke-dashoffset:0.0;stroke-width:0.5;"/>
     </g>
     <g id="line2d_24">
      <g>
       <use style="stroke:#000000;stroke-width:0.5;" x="72.0" xlink:href="#m728421d6d4" y="250.56"/>
      </g>
     </g>
     <g id="line2d_25">
      <g>
       <use style="stroke:#000000;stroke-width:0.5;" x="518.4" xlink:href="#mcb0005524f" y="250.56"/>
      </g>
     </g>
     <g id="text_8">
      <!-- $4$ -->
      <g transform="translate(62.0224159402 253.318644646)scale(0.12 -0.12)">
       <use transform="scale(0.996264009963)" xlink:href="#Nimbus_Roman_No9_L_Regular-52"/>
      </g>
     </g>
    </g>
    <g id="ytick_4">
     <g id="line2d_26">
      <path clip-path="url(#p7ff5b81e1d)" d="
M72 181.44
L518.4 181.44" style="fill:none;stroke:#000000;stroke-dasharray:1.000000,3.000000;stroke-dashoffset:0.0;stroke-width:0.5;"/>
     </g>
     <g id="line2d_27">
      <g>
       <use style="stroke:#000000;stroke-width:0.5;" x="72.0" xlink:href="#m728421d6d4" y="181.44"/>
      </g>
     </g>
     <g id="line2d_28">
      <g>
       <use style="stroke:#000000;stroke-width:0.5;" x="518.4" xlink:href="#mcb0005524f" y="181.44"/>
      </g>
     </g>
     <g id="text_9">
      <!-- $6$ -->
      <defs>
       <path d="
M44.5938 68.6094
C33.2031 67.6094 27.4062 65.7188 20.0938 60.625
C9.29688 52.9531 3.40625 41.5781 3.40625 28.2344
C3.40625 19.5469 6.09375 10.7812 10.4062 5.79688
C14.2031 1.40625 19.5938 -1 25.7969 -1
C38.2031 -1 46.7969 8.45312 46.7969 22.2031
C46.7969 34.9375 39.5 43 28 43
C23.5938 43 21.5 42.2969 15.2031 38.5
C17.9062 53.6094 29.0938 64.4062 44.7969 67
z

M24.2031 38.4062
C32.7969 38.4062 37.7969 31.25 37.7969 18.8125
C37.7969 7.875 33.9062 1.8125 26.9062 1.8125
C18.0938 1.8125 12.7031 11.1562 12.7031 26.5625
C12.7031 31.6406 13.5 34.4219 15.5 35.9219
C17.5938 37.5 20.7031 38.4062 24.2031 38.4062" id="Nimbus_Roman_No9_L_Regular-54"/>
      </defs>
      <g transform="translate(62.0224159402 184.198644646)scale(0.12 -0.12)">
       <use transform="scale(0.996264009963)" xlink:href="#Nimbus_Roman_No9_L_Regular-54"/>
      </g>
     </g>
    </g>
    <g id="ytick_5">
     <g id="line2d_29">
      <path clip-path="url(#p7ff5b81e1d)" d="
M72 112.32
L518.4 112.32" style="fill:none;stroke:#000000;stroke-dasharray:1.000000,3.000000;stroke-dashoffset:0.0;stroke-width:0.5;"/>
     </g>
     <g id="line2d_30">
      <g>
       <use style="stroke:#000000;stroke-width:0.5;" x="72.0" xlink:href="#m728421d6d4" y="112.32"/>
      </g>
     </g>
     <g id="line2d_31">
      <g>
       <use style="stroke:#000000;stroke-width:0.5;" x="518.4" xlink:href="#mcb0005524f" y="112.32"/>
      </g>
     </g>
     <g id="text_10">
      <!-- $8$ -->
      <defs>
       <path d="
M29 37.5
C38.9062 42.8125 42.4062 47 42.4062 53.8125
C42.4062 62 35.2031 68 25.2031 68
C14.2969 68 6.20312 61.3125 6.20312 52.2031
C6.20312 45.7031 8.09375 42.8125 18.5938 33.6094
C7.79688 25.4062 5.59375 22.3125 5.59375 15.5
C5.59375 5.8125 13.5 -1 24.7969 -1
C36.7969 -1 44.5 5.60938 44.5 15.9062
C44.5 23.6094 41.0938 28.5 29 37.5
M27.2031 27.2031
C34.5 22 36.9062 18.4062 36.9062 12.8125
C36.9062 6.3125 32.4062 1.8125 25.9062 1.8125
C18.2969 1.8125 13.2031 7.60938 13.2031 16.3125
C13.2031 22.7031 15.4062 26.9062 21.2031 31.6094
z

M26.0938 39.3125
C17.2031 45.1094 13.5938 49.7031 13.5938 55.3125
C13.5938 61.1094 18.0938 65.2031 24.4062 65.2031
C31.2031 65.2031 35.5 60.8125 35.5 53.9062
C35.5 48.2031 32.7031 43.7031 27 39.9062
C26.5 39.6094 26.5 39.6094 26.0938 39.3125" id="Nimbus_Roman_No9_L_Regular-56"/>
      </defs>
      <g transform="translate(62.0224159402 115.078644646)scale(0.12 -0.12)">
       <use transform="scale(0.996264009963)" xlink:href="#Nimbus_Roman_No9_L_Regular-56"/>
      </g>
     </g>
    </g>
    <g id="ytick_6">
     <g id="line2d_32">
      <path clip-path="url(#p7ff5b81e1d)" d="
M72 43.2
L518.4 43.2" style="fill:none;stroke:#000000;stroke-dasharray:1.000000,3.000000;stroke-dashoffset:0.0;stroke-width:0.5;"/>
     </g>
     <g id="line2d_33">
      <g>
       <use style="stroke:#000000;stroke-width:0.5;" x="72.0" xlink:href="#m728421d6d4" y="43.2"/>
      </g>
     </g>
     <g id="line2d_34">
      <g>
       <use style="stroke:#000000;stroke-width:0.5;" x="518.4" xlink:href="#mcb0005524f" y="43.2"/>
      </g>
     </g>
     <g id="text_11">
      <!-- $10$ -->
      <g transform="translate(56.0448318804 45.9586446456)scale(0.12 -0.12)">
       <use transform="scale(0.996264009963)" xlink:href="#Nimbus_Roman_No9_L_Regular-49"/>
       <use transform="translate(49.8132004981 0.0)scale(0.996264009963)" xlink:href="#Nimbus_Roman_No9_L_Regular-48"/>
      </g>
     </g>
    </g>
   </g>
  </g>
 </g>
 <defs>
  <clipPath id="p7ff5b81e1d">
   <rect height="345.6" width="446.4" x="72.0" y="43.2"/>
  </clipPath>
 </defs>
</svg>
